<svg xmlns="http://www.w3.org/2000/svg" xmlns:xlink="http://www.w3.org/1999/xlink" width="400" zoomAndPan="magnify" viewBox="0 0 300 299.999988" height="400" preserveAspectRatio="xMidYMid meet" version="1.0"><path fill="#000000" d="M 149.972656 -0.00390625 C 66.941406 -0.00390625 -0.015625 67.625 -0.015625 149.984375 C -0.015625 233.015625 67.613281 299.976562 149.972656 299.976562 C 233.003906 299.976562 299.964844 232.347656 299.964844 149.984375 C 299.964844 67.625 233.003906 -0.00390625 149.972656 -0.00390625 Z M 243.046875 222.300781 C 239.03125 235.695312 220.953125 255.113281 204.210938 255.113281 L 202.871094 254.445312 C 178.097656 253.105469 143.949219 229.667969 112.476562 191.5 L 101.09375 177.4375 C 69.621094 139.273438 52.882812 101.773438 56.898438 77.667969 C 59.578125 60.257812 85.023438 46.199219 99.753906 46.199219 C 107.121094 46.199219 109.796875 49.546875 110.46875 52.222656 C 118.503906 66.953125 129.214844 92.398438 129.214844 101.773438 L 129.214844 103.113281 C 127.207031 107.800781 123.191406 110.480469 119.839844 112.488281 C 115.15625 115.167969 112.476562 117.175781 111.804688 121.863281 C 111.804688 123.203125 113.144531 130.566406 133.902344 156.011719 L 142.609375 166.726562 C 163.367188 191.5 170.0625 194.179688 171.402344 194.179688 C 176.757812 194.847656 178.765625 192.839844 182.785156 188.824219 C 185.460938 185.472656 188.8125 182.125 193.496094 181.457031 L 194.835938 181.457031 C 204.210938 183.464844 226.976562 198.195312 240.371094 209.582031 C 242.378906 210.25 245.726562 213.597656 243.046875 222.300781 Z M 243.046875 222.300781 " fill-opacity="1" fill-rule="nonzero"/></svg>