<svg xmlns="http://www.w3.org/2000/svg" xmlns:xlink="http://www.w3.org/1999/xlink" width="400" zoomAndPan="magnify" viewBox="0 0 300 299.999988" height="400" preserveAspectRatio="xMidYMid meet" version="1.0"><defs><g/></defs><g fill="#ffffff" fill-opacity="1"><g transform="translate(154.575785, 124.752091)"><g><path d="M 6.15625 -3.015625 L 1.71875 -3.015625 C 1.75 -2.222656 1.9375 -1.644531 2.28125 -1.28125 C 2.632812 -0.914062 3.113281 -0.734375 3.71875 -0.734375 C 4.175781 -0.734375 4.546875 -0.8125 4.828125 -0.96875 C 5.109375 -1.132812 5.332031 -1.394531 5.5 -1.75 L 5.625 -1.75 L 6.234375 -1.390625 C 6.046875 -0.921875 5.742188 -0.550781 5.328125 -0.28125 C 4.921875 -0.0078125 4.382812 0.125 3.71875 0.125 C 3.09375 0.125 2.554688 0.00390625 2.109375 -0.234375 C 1.660156 -0.484375 1.3125 -0.859375 1.0625 -1.359375 C 0.820312 -1.859375 0.703125 -2.484375 0.703125 -3.234375 C 0.703125 -3.960938 0.832031 -4.578125 1.09375 -5.078125 C 1.351562 -5.585938 1.703125 -5.96875 2.140625 -6.21875 C 2.585938 -6.46875 3.09375 -6.59375 3.65625 -6.59375 C 4.488281 -6.59375 5.132812 -6.359375 5.59375 -5.890625 C 6.0625 -5.421875 6.300781 -4.726562 6.3125 -3.8125 C 6.3125 -3.445312 6.300781 -3.203125 6.28125 -3.078125 Z M 5.359375 -3.8125 C 5.347656 -4.5 5.195312 -5 4.90625 -5.3125 C 4.613281 -5.625 4.195312 -5.78125 3.65625 -5.78125 C 3.09375 -5.78125 2.648438 -5.617188 2.328125 -5.296875 C 2.003906 -4.984375 1.804688 -4.488281 1.734375 -3.8125 Z M 5.359375 -3.8125 "/></g></g><g transform="translate(161.46641, 124.752091)"><g><path d="M 4.375 -1.03125 L 4.671875 -0.34375 C 4.523438 -0.1875 4.328125 -0.0703125 4.078125 0 C 3.828125 0.0820312 3.554688 0.125 3.265625 0.125 C 2.035156 0.125 1.421875 -0.5 1.421875 -1.75 L 1.421875 -5.6875 L 0.296875 -5.6875 L 0.296875 -6.46875 L 1.421875 -6.46875 L 1.421875 -7.828125 L 2.375 -8 L 2.375 -6.46875 L 4.453125 -6.46875 L 4.453125 -5.6875 L 2.375 -5.6875 L 2.375 -1.84375 C 2.375 -1.101562 2.695312 -0.734375 3.34375 -0.734375 C 3.695312 -0.734375 4 -0.832031 4.25 -1.03125 Z M 4.375 -1.03125 "/></g></g></g><g fill="#ffffff" fill-opacity="1"><g transform="translate(166.312113, 124.752091)"><g><path d="M 3.703125 0.125 C 3.097656 0.125 2.566406 -0.00390625 2.109375 -0.265625 C 1.660156 -0.523438 1.3125 -0.90625 1.0625 -1.40625 C 0.820312 -1.90625 0.703125 -2.515625 0.703125 -3.234375 C 0.703125 -3.941406 0.820312 -4.546875 1.0625 -5.046875 C 1.3125 -5.554688 1.660156 -5.941406 2.109375 -6.203125 C 2.566406 -6.460938 3.097656 -6.59375 3.703125 -6.59375 C 4.316406 -6.59375 4.847656 -6.460938 5.296875 -6.203125 C 5.753906 -5.941406 6.101562 -5.554688 6.34375 -5.046875 C 6.582031 -4.546875 6.703125 -3.941406 6.703125 -3.234375 C 6.703125 -2.515625 6.582031 -1.90625 6.34375 -1.40625 C 6.101562 -0.90625 5.753906 -0.523438 5.296875 -0.265625 C 4.847656 -0.00390625 4.316406 0.125 3.703125 0.125 Z M 3.703125 -0.734375 C 4.347656 -0.734375 4.84375 -0.9375 5.1875 -1.34375 C 5.53125 -1.75 5.703125 -2.378906 5.703125 -3.234375 C 5.703125 -4.085938 5.53125 -4.71875 5.1875 -5.125 C 4.84375 -5.53125 4.347656 -5.734375 3.703125 -5.734375 C 3.066406 -5.734375 2.578125 -5.523438 2.234375 -5.109375 C 1.890625 -4.703125 1.71875 -4.078125 1.71875 -3.234375 C 1.71875 -2.378906 1.890625 -1.75 2.234375 -1.34375 C 2.578125 -0.9375 3.066406 -0.734375 3.703125 -0.734375 Z M 3.703125 -0.734375 "/></g></g><g transform="translate(173.730081, 124.752091)"><g/></g><g transform="translate(176.671487, 124.752091)"><g><path d="M 1.125 0 L 1.125 -6.46875 L 2.03125 -6.46875 L 2.03125 -5.453125 L 2.15625 -5.421875 C 2.375 -5.796875 2.648438 -6.082031 2.984375 -6.28125 C 3.316406 -6.488281 3.722656 -6.59375 4.203125 -6.59375 C 4.984375 -6.59375 5.546875 -6.390625 5.890625 -5.984375 C 6.242188 -5.585938 6.421875 -4.976562 6.421875 -4.15625 L 6.421875 0 L 5.46875 0 L 5.46875 -4.140625 C 5.46875 -4.523438 5.414062 -4.835938 5.3125 -5.078125 C 5.207031 -5.316406 5.050781 -5.488281 4.84375 -5.59375 C 4.632812 -5.695312 4.363281 -5.75 4.03125 -5.75 C 3.445312 -5.75 2.972656 -5.554688 2.609375 -5.171875 C 2.253906 -4.785156 2.078125 -4.164062 2.078125 -3.3125 L 2.078125 0 Z M 1.125 0 "/></g></g><g transform="translate(184.112892, 124.752091)"><g><path d="M 2.671875 0.125 C 2.035156 0.125 1.535156 -0.0390625 1.171875 -0.375 C 0.816406 -0.707031 0.640625 -1.179688 0.640625 -1.796875 C 0.640625 -2.179688 0.71875 -2.503906 0.875 -2.765625 C 1.03125 -3.035156 1.273438 -3.25 1.609375 -3.40625 C 1.941406 -3.570312 2.375 -3.703125 2.90625 -3.796875 C 3.375 -3.878906 3.726562 -3.96875 3.96875 -4.0625 C 4.21875 -4.15625 4.382812 -4.265625 4.46875 -4.390625 C 4.550781 -4.515625 4.59375 -4.664062 4.59375 -4.84375 C 4.59375 -5.132812 4.492188 -5.359375 4.296875 -5.515625 C 4.097656 -5.671875 3.773438 -5.75 3.328125 -5.75 C 2.910156 -5.75 2.550781 -5.664062 2.25 -5.5 C 1.957031 -5.34375 1.6875 -5.101562 1.4375 -4.78125 L 1.3125 -4.78125 L 0.84375 -5.453125 C 1.113281 -5.796875 1.457031 -6.070312 1.875 -6.28125 C 2.300781 -6.488281 2.785156 -6.59375 3.328125 -6.59375 C 4.085938 -6.59375 4.648438 -6.421875 5.015625 -6.078125 C 5.378906 -5.742188 5.5625 -5.285156 5.5625 -4.703125 L 5.5625 -1.265625 C 5.5625 -0.910156 5.710938 -0.734375 6.015625 -0.734375 C 6.117188 -0.734375 6.21875 -0.75 6.3125 -0.78125 L 6.390625 -0.765625 L 6.5 -0.09375 C 6.425781 -0.0507812 6.332031 -0.0195312 6.21875 0 C 6.101562 0.03125 5.984375 0.046875 5.859375 0.046875 C 5.503906 0.046875 5.234375 -0.03125 5.046875 -0.1875 C 4.867188 -0.34375 4.757812 -0.570312 4.71875 -0.875 L 4.59375 -0.890625 C 4.40625 -0.546875 4.15625 -0.289062 3.84375 -0.125 C 3.53125 0.0390625 3.140625 0.125 2.671875 0.125 Z M 2.875 -0.640625 C 3.238281 -0.640625 3.550781 -0.722656 3.8125 -0.890625 C 4.070312 -1.054688 4.269531 -1.289062 4.40625 -1.59375 C 4.550781 -1.894531 4.625 -2.238281 4.625 -2.625 L 4.625 -3.453125 L 4.515625 -3.46875 C 4.367188 -3.375 4.191406 -3.289062 3.984375 -3.21875 C 3.785156 -3.15625 3.5 -3.09375 3.125 -3.03125 C 2.75 -2.976562 2.453125 -2.898438 2.234375 -2.796875 C 2.015625 -2.691406 1.859375 -2.554688 1.765625 -2.390625 C 1.671875 -2.234375 1.625 -2.035156 1.625 -1.796875 C 1.625 -1.421875 1.734375 -1.132812 1.953125 -0.9375 C 2.171875 -0.738281 2.476562 -0.640625 2.875 -0.640625 Z M 2.875 -0.640625 "/></g></g></g><path fill="#000000" d="M 149.972656 -0.00390625 C 66.941406 -0.00390625 -0.015625 67.625 -0.015625 149.984375 C -0.015625 233.015625 67.613281 299.976562 149.972656 299.976562 C 233.003906 299.976562 299.964844 232.347656 299.964844 149.984375 C 299.964844 67.625 233.003906 -0.00390625 149.972656 -0.00390625 Z M 243.046875 222.300781 C 239.03125 235.695312 220.953125 255.113281 204.210938 255.113281 L 202.871094 254.445312 C 178.097656 253.105469 143.949219 229.667969 112.476562 191.5 L 101.09375 177.4375 C 69.621094 139.273438 52.882812 101.773438 56.898438 77.667969 C 59.578125 60.257812 85.023438 46.199219 99.753906 46.199219 C 107.121094 46.199219 109.796875 49.546875 110.46875 52.222656 C 118.503906 66.953125 129.214844 92.398438 129.214844 101.773438 L 129.214844 103.113281 C 127.207031 107.800781 123.191406 110.480469 119.839844 112.488281 C 115.15625 115.167969 112.476562 117.175781 111.804688 121.863281 C 111.804688 123.203125 113.144531 130.566406 133.902344 156.011719 L 142.609375 166.726562 C 163.367188 191.5 170.0625 194.179688 171.402344 194.179688 C 176.757812 194.847656 178.765625 192.839844 182.785156 188.824219 C 185.460938 185.472656 188.8125 182.125 193.496094 181.457031 L 194.835938 181.457031 C 204.210938 183.464844 226.976562 198.195312 240.371094 209.582031 C 242.378906 210.25 245.726562 213.597656 243.046875 222.300781 Z M 243.046875 222.300781 " fill-opacity="1" fill-rule="nonzero"/></svg>